<svg width="137" height="95" viewBox="0 0 137 95" fill="none" xmlns="http://www.w3.org/2000/svg">
<mask id="mask0_211_134" style="mask-type:alpha" maskUnits="userSpaceOnUse" x="0" y="0" width="137" height="95">
<path d="M136.619 0H0V95H136.619V0Z" fill="#C4C4C4"/>
</mask>
<g mask="url(#mask0_211_134)">
<path d="M40.7494 55.1872C33.2995 53.1887 22.9015 52.139 14.8947 55.3042C10.7091 56.9588 7.16403 59.7716 5.0585 64.2049C2.95695 68.63 2.31512 74.6156 3.82273 82.5736L3.92232 83.0993L4.4241 82.9138L63.6549 61.0137L63.6674 61.0091L63.6794 61.0038L132.879 30.7133L133.388 30.4903L133.066 30.037C126.922 21.3809 116.42 10.4143 104.887 5.74196C99.1087 3.40129 93.0423 2.62915 87.1328 4.55388C81.2829 6.45922 75.6529 10.9859 70.6334 19.1008C62.6524 18.0191 51.6636 18.5127 44.4216 23.5977C40.7346 26.1866 38.0261 29.9621 37.1929 35.2851C36.3902 40.4137 37.3337 46.9411 40.7494 55.1872Z" fill="white" stroke="#004B1A" stroke-width="0.904762"/>
<path d="M70.8637 19.5894C90.9394 -13.2468 120.451 13.0472 132.698 30.2989L77.9906 125.053L4.26701 82.4894C-1.71809 50.8968 26.6149 51.5819 41.5295 55.8735C26.756 21.4282 54.93 17.3319 70.8637 19.5894Z" fill="white"/>
</g>
</svg>
