<svg width="173" height="120" viewBox="0 0 173 120" fill="none" xmlns="http://www.w3.org/2000/svg">
<g clip-path="url(#clip0_218_171)">
<mask id="mask0_218_171" style="mask-type:alpha" maskUnits="userSpaceOnUse" x="0" y="0" width="173" height="120">
<path d="M173 0H0.796875V119.744H173V0Z" fill="#C4C4C4"/>
</mask>
<g mask="url(#mask0_218_171)">
<path d="M52.1601 69.5612C42.7698 67.0421 29.6635 65.7191 19.5713 69.7086C14.2955 71.7942 9.827 75.3397 7.17306 80.9277C4.52414 86.5054 3.71513 94.0499 5.61542 104.081L5.74095 104.743L6.37343 104.509L81.0316 76.9052L81.0473 76.8994L81.0625 76.8928L168.286 38.7128L168.928 38.4318L168.522 37.8603C160.777 26.9498 147.541 13.1268 133.002 7.23746C125.72 4.28713 118.073 3.31388 110.625 5.73993C103.251 8.14153 96.1547 13.8472 89.8277 24.0757C79.768 22.7123 65.917 23.3344 56.7888 29.7439C52.1415 33.0071 48.7275 37.766 47.6773 44.4754C46.6655 50.9398 47.8548 59.1673 52.1601 69.5612Z" fill="white" stroke="#004B1A" stroke-width="1.14042"/>
<path d="M90.1185 24.6917C115.423 -16.697 152.621 16.4455 168.058 38.1905L99.1017 157.625L6.17582 103.975C-1.36818 64.1534 34.3445 65.0169 53.1437 70.4263C34.5223 27.0094 70.0346 21.8462 90.1185 24.6917Z" fill="white"/>
</g>
</g>
<defs>
<clipPath id="clip0_218_171">
<rect width="172.203" height="119.744" fill="white" transform="translate(0.796875)"/>
</clipPath>
</defs>
</svg>
