<svg width="91" height="40" viewBox="0 0 91 40" fill="none" xmlns="http://www.w3.org/2000/svg">
<g clip-path="url(#clip0_65_948)">
<mask id="mask0_65_948" style="mask-type:alpha" maskUnits="userSpaceOnUse" x="0" y="0" width="91" height="40">
<path d="M90.8125 0.1875H0.8125V39.1875H90.8125V0.1875Z" fill="#C4C4C4"/>
</mask>
<g mask="url(#mask0_65_948)">
<path d="M30.6226 20.34C27.3078 17.058 22.2134 13.4212 17.0875 12.6615C14.3715 12.259 11.6353 12.6634 9.16538 14.367C6.70152 16.0664 4.54163 19.0318 2.91727 23.6774L2.77722 24.0779L3.19546 24.1495L40.9286 30.6051L40.9389 30.6069L40.9494 30.6081L86.459 35.6804L86.8973 35.7292L86.856 35.2902C86.2532 28.8766 84.0618 19.9177 79.4085 13.9504C77.076 10.9593 74.1093 8.70061 70.3988 7.91468C66.7372 7.13909 62.4049 7.80906 57.3185 10.5329C53.4498 7.55211 47.5341 4.48952 42.179 4.96512C39.4376 5.20859 36.8495 6.3798 34.7833 8.94096C32.8153 11.3803 31.3388 15.0573 30.6226 20.34Z" fill="white" stroke="#004B1A" stroke-width="0.717624"/>
<path d="M57.2831 10.9598C77.7754 -0.193594 85.2987 22.5552 86.4988 35.3238L29.0585 68.487L3.25598 23.7958C9.68963 5.39614 24.3563 14.3435 30.8855 21.1171C33.5699 -1.4439 49.6025 4.94516 57.2831 10.9598Z" fill="white"/>
</g>
</g>
<defs>
<clipPath id="clip0_65_948">
<rect width="90" height="39" fill="white" transform="translate(0.8125 0.1875)"/>
</clipPath>
</defs>
</svg>
