<svg width="152" height="105" viewBox="0 0 152 105" fill="none" xmlns="http://www.w3.org/2000/svg">
<g clip-path="url(#clip0_211_134)">
<mask id="mask0_211_134" style="mask-type:alpha" maskUnits="userSpaceOnUse" x="0" y="0" width="152" height="105">
<path d="M151.797 0H0.796875V105H151.797V0Z" fill="#C4C4C4"/>
</mask>
<g mask="url(#mask0_211_134)">
<path d="M45.8356 60.9963C37.6015 58.7874 26.109 57.6273 17.2594 61.1256C12.6332 62.9544 8.71496 66.0633 6.3878 70.9633C4.06503 75.8542 3.35564 82.4698 5.02195 91.2655L5.13202 91.8465L5.68662 91.6415L71.1522 67.4361L71.166 67.431L71.1793 67.4252L147.663 33.9462L148.226 33.6998L147.87 33.1987C141.079 23.6315 129.472 11.5105 116.724 6.34633C110.338 3.75927 103.633 2.90585 97.1015 5.03319C90.6358 7.13909 84.4132 12.1422 78.8653 21.1113C70.0442 19.9158 57.8987 20.4613 49.8944 26.0816C45.8193 28.943 42.8257 33.116 41.9048 38.9993C41.0176 44.6677 42.0604 51.8822 45.8356 60.9963Z" fill="white" stroke="#004B1A"/>
<path d="M79.1202 21.6514C101.309 -14.6412 133.927 14.4206 147.463 33.4882L86.9973 138.217L5.51325 91.1725C-1.10187 56.2543 30.2136 57.0115 46.6981 61.7549C30.3695 23.6838 61.5092 19.1563 79.1202 21.6514Z" fill="white"/>
</g>
</g>
<defs>
<clipPath id="clip0_211_134">
<rect width="151" height="105" fill="white" transform="translate(0.796875)"/>
</clipPath>
</defs>
</svg>
