<svg width="152" height="95" viewBox="0 0 152 95" fill="none" xmlns="http://www.w3.org/2000/svg">
<g clip-path="url(#clip0_211_126)">
<mask id="mask0_211_126" style="mask-type:alpha" maskUnits="userSpaceOnUse" x="0" y="0" width="152" height="95">
<path d="M151.703 0H0.703125V95H151.703V0Z" fill="#C4C4C4"/>
</mask>
<g mask="url(#mask0_211_126)">
<path d="M103.365 33.2211C111.599 35.43 123.091 36.5901 131.941 33.0918C136.567 31.263 140.485 28.1541 142.812 23.2541C145.135 18.3632 145.845 11.7476 144.178 2.9518L144.068 2.37085L143.514 2.5759L78.0479 26.7813L78.0341 26.7864L78.0208 26.7922L1.53703 60.2712L0.974121 60.5176L1.32981 61.0187C8.12117 70.5858 19.7276 82.7069 32.4757 87.8711C38.862 90.4581 45.5671 91.3115 52.0986 89.1842C58.5643 87.0783 64.7869 82.0752 70.3348 73.106C79.1559 74.3016 91.3014 73.7561 99.3057 68.1358C103.381 65.2744 106.375 61.1014 107.295 55.2181C108.183 49.5497 107.14 42.3352 103.365 33.2211Z" fill="white" stroke="#004B1A"/>
<path d="M70.0798 72.5659C47.8904 108.858 15.2726 79.7966 1.7373 60.7291L62.2027 -44L143.687 3.04481C150.302 37.963 118.987 37.2058 102.502 32.4624C118.831 70.5335 87.6907 75.061 70.0798 72.5659Z" fill="white"/>
</g>
</g>
<defs>
<clipPath id="clip0_211_126">
<rect width="151" height="95" fill="white" transform="translate(0.703125)"/>
</clipPath>
</defs>
</svg>
