<svg width="231" height="142" viewBox="0 0 231 142" fill="none" xmlns="http://www.w3.org/2000/svg">
<g clip-path="url(#clip0_143_961)">
<mask id="mask0_143_961" style="mask-type:alpha" maskUnits="userSpaceOnUse" x="0" y="0" width="231" height="142">
<path d="M231 0H0V142H231V0Z" fill="#C4C4C4"/>
</mask>
<g mask="url(#mask0_143_961)">
<path d="M161.864 48.1038C174.507 51.5747 192.368 53.4605 206.053 48.0506C213.103 45.2637 219.059 40.5334 222.597 33.0836C226.131 25.6432 227.223 15.5513 224.673 2.08912L224.56 1.4939L223.992 1.70399L123.543 38.8441L123.529 38.8493L123.515 38.8554L6.15997 90.2248L5.58325 90.4772L5.94766 90.9906C16.3561 105.653 34.1301 124.206 53.6252 132.104C63.3853 136.057 73.6098 137.353 83.5594 134.112C93.4419 130.894 102.978 123.224 111.49 109.41C125.016 111.27 143.674 110.453 155.925 101.85C162.126 97.496 166.678 91.1522 168.079 82.1984C169.446 73.4642 167.809 62.2901 161.864 48.1038Z" fill="white" stroke="#004B1A" stroke-width="1.02455"/>
<path d="M111.229 108.856C77.1817 164.543 27.1335 119.951 6.36536 90.694L99.142 -70L224.169 2.18444C234.319 55.7622 186.27 54.6003 160.976 47.3221C186.031 105.738 138.25 112.685 111.229 108.856Z" fill="white"/>
</g>
</g>
<defs>
<clipPath id="clip0_143_961">
<rect width="231" height="142" fill="white"/>
</clipPath>
</defs>
</svg>
