<svg width="152" height="95" viewBox="0 0 152 95" fill="none" xmlns="http://www.w3.org/2000/svg">
<g clip-path="url(#clip0_176_743)">
<mask id="mask0_176_743" style="mask-type:alpha" maskUnits="userSpaceOnUse" x="0" y="0" width="152" height="95">
<path d="M151.703 0H0.703125V95H151.703V0Z" fill="#C4C4C4"/>
</mask>
<g mask="url(#mask0_176_743)">
<path d="M103.365 33.2211C111.599 35.43 123.091 36.5901 131.941 33.0918C136.567 31.263 140.485 28.1541 142.812 23.2541C145.135 18.3632 145.845 11.7476 144.178 2.9518L144.068 2.37085L143.514 2.5759L78.0482 26.7813L78.0344 26.7864L78.0211 26.7922L1.53727 60.2712L0.974365 60.5176L1.33005 61.0187C8.12142 70.5858 19.7279 82.7069 32.476 87.8711C38.8623 90.4581 45.5674 91.3115 52.0989 89.1842C58.5646 87.0783 64.7872 82.0752 70.3351 73.106C79.1562 74.3016 91.3017 73.7561 99.306 68.1358C103.381 65.2744 106.375 61.1014 107.295 55.2181C108.183 49.5497 107.14 42.3352 103.365 33.2211Z" fill="white" stroke="#004B1A"/>
<path d="M70.0803 72.5659C47.8909 108.858 15.2731 79.7966 1.73779 60.7291L62.2032 -44L143.687 3.04481C150.302 37.963 118.987 37.2058 102.502 32.4624C118.831 70.5335 87.6912 75.061 70.0803 72.5659Z" fill="white"/>
</g>
</g>
<defs>
<clipPath id="clip0_176_743">
<rect width="151" height="95" fill="white" transform="translate(0.703125)"/>
</clipPath>
</defs>
</svg>
