<svg width="132" height="106" viewBox="0 0 132 106" fill="none" xmlns="http://www.w3.org/2000/svg">
<g clip-path="url(#clip0_169_26)">
<path d="M83.7055 76.2575C85.9095 84.4929 90.6511 95.0258 98.1055 100.941C102.002 104.033 106.654 105.871 112.061 105.437C117.458 105.003 123.542 102.309 130.326 96.4685L130.774 96.0827L130.319 95.705L76.6242 51.1127L76.6129 51.1034L76.6012 51.0947L9.36561 1.59734L8.87077 1.23305L8.61468 1.79162C3.72493 12.4567 -0.968952 28.5687 0.93277 42.191C1.88546 49.0152 4.49889 55.2487 9.60698 59.8414C14.6636 64.388 22.1077 67.2754 32.6492 67.5954C36.0244 75.8324 42.5695 86.078 51.4391 90.1998C55.9547 92.2983 61.0653 92.8043 66.6209 90.6602C71.9735 88.5943 77.7 84.0839 83.7055 76.2575Z" fill="white" stroke="#004B1A"/>
<path d="M32.9895 67.1047C-9.53547 66.0345 -0.676088 23.2556 9.06923 2H130V96.0896C103.067 119.278 88.0656 91.779 83.9312 75.1313C59.125 108.308 39.6342 83.6038 32.9895 67.1047Z" fill="white"/>
</g>
<defs>
<clipPath id="clip0_169_26">
<rect width="132" height="106" fill="white"/>
</clipPath>
</defs>
</svg>
