<svg width="151" height="105" viewBox="0 0 151 105" fill="none" xmlns="http://www.w3.org/2000/svg">
<g clip-path="url(#clip0_221_187)">
<mask id="mask0_221_187" style="mask-type:alpha" maskUnits="userSpaceOnUse" x="0" y="0" width="151" height="105">
<path d="M151 0H0V105H151V0Z" fill="#C4C4C4"/>
</mask>
<g mask="url(#mask0_221_187)">
<path d="M45.0387 60.9963C36.8046 58.7874 25.3121 57.6273 16.4625 61.1256C11.8363 62.9544 7.91809 66.0633 5.59093 70.9633C3.26816 75.8542 2.55877 82.4698 4.22508 91.2655L4.33515 91.8465L4.88975 91.6415L70.3553 67.4361L70.3691 67.431L70.3824 67.4252L146.866 33.9462L147.429 33.6998L147.073 33.1987C140.282 23.6315 128.675 11.5105 115.927 6.34633C109.541 3.75927 102.836 2.90585 96.3046 5.03319C89.8389 7.13909 83.6163 12.1422 78.0684 21.1113C69.2473 19.9158 57.1018 20.4613 49.0975 26.0816C45.0224 28.943 42.0288 33.116 41.1079 38.9993C40.2207 44.6677 41.2635 51.8822 45.0387 60.9963Z" fill="white" stroke="#004B1A"/>
<path d="M78.3233 21.6514C100.512 -14.6412 133.13 14.4206 146.666 33.4882L86.2004 138.217L4.71638 91.1725C-1.89874 56.2543 29.4167 57.0115 45.9012 61.7549C29.5726 23.6838 60.7123 19.1563 78.3233 21.6514Z" fill="white"/>
</g>
</g>
<defs>
<clipPath id="clip0_221_187">
<rect width="151" height="105" fill="white"/>
</clipPath>
</defs>
</svg>
