<svg width="32" height="33" viewBox="0 0 32 33" fill="none" xmlns="http://www.w3.org/2000/svg">
<path d="M17.5 23.8125V12.8125C17.5018 11.2218 18.1345 9.69667 19.2593 8.57185C20.3842 7.44702 21.9093 6.8143 23.5 6.8125C23.7652 6.8125 24.0196 6.91786 24.2071 7.10539C24.3946 7.29293 24.5 7.54728 24.5 7.8125C24.5 8.07772 24.3946 8.33207 24.2071 8.51961C24.0196 8.70714 23.7652 8.8125 23.5 8.8125C22.4395 8.81369 21.4228 9.2355 20.6729 9.98539C19.923 10.7353 19.5012 11.752 19.5 12.8125V13.8125H27C27.5302 13.8131 28.0386 14.024 28.4135 14.399C28.7885 14.7739 28.9994 15.2823 29 15.8125V23.8125C28.9994 24.3427 28.7885 24.8511 28.4135 25.226C28.0386 25.601 27.5302 25.8119 27 25.8125H19.5C18.9698 25.8119 18.4614 25.601 18.0865 25.226C17.7115 24.8511 17.5006 24.3427 17.5 23.8125ZM5 25.8125H12.5C13.0302 25.8119 13.5386 25.601 13.9135 25.226C14.2885 24.8511 14.4994 24.3427 14.5 23.8125V15.8125C14.4994 15.2823 14.2885 14.7739 13.9135 14.399C13.5386 14.024 13.0302 13.8131 12.5 13.8125H5V12.8125C5.00119 11.752 5.423 10.7353 6.17289 9.98539C6.92278 9.2355 7.9395 8.81369 9 8.8125C9.26522 8.8125 9.51957 8.70714 9.70711 8.51961C9.89465 8.33207 10 8.07772 10 7.8125C10 7.54728 9.89465 7.29293 9.70711 7.10539C9.51957 6.91785 9.26522 6.8125 9 6.8125C7.40925 6.8143 5.88418 7.44702 4.75935 8.57184C3.63452 9.69667 3.0018 11.2218 3 12.8125V23.8125C3.00061 24.3427 3.21152 24.8511 3.58646 25.226C3.9614 25.601 4.46975 25.8119 5 25.8125Z" fill="#004B1A"/>
</svg>
