<svg width="151" height="89" viewBox="0 0 151 89" fill="none" xmlns="http://www.w3.org/2000/svg">
<g clip-path="url(#clip0_169_18)">
<mask id="mask0_169_18" style="mask-type:alpha" maskUnits="userSpaceOnUse" x="0" y="0" width="151" height="89">
<path d="M151 0H0V89H151V0Z" fill="#C4C4C4"/>
</mask>
<g mask="url(#mask0_169_18)">
<path d="M52.156 33.169C47.8955 25.7847 40.5894 16.8379 31.8582 13.054C27.2937 11.076 22.3248 10.5036 17.2144 12.3229C12.1136 14.1388 6.93404 18.3152 1.89278 25.713L1.55981 26.2016L2.09697 26.4488L65.5039 55.6242L65.5172 55.6303L65.5308 55.6356L143.286 86.0446L143.859 86.2684L143.961 85.6626C145.924 74.0953 146.288 57.3175 140.925 44.6516C138.239 38.3065 134.101 32.9618 127.978 29.8476C121.917 26.7647 113.98 25.9024 103.715 28.3216C98.3224 21.2388 89.3485 13.0363 79.7144 11.3506C74.8095 10.4924 69.742 11.3263 64.9307 14.8353C60.2952 18.2161 55.9312 24.0549 52.156 33.169Z" fill="white" stroke="#004B1A"/>
<path d="M103.513 28.8837C144.866 18.9112 147.38 62.5253 143.468 85.5789L26.6581 116.878L2.30591 25.9946C22.3192 -3.37394 43.927 19.3048 52.2293 34.3153C67.6036 -4.15119 92.8241 14.6665 103.513 28.8837Z" fill="white"/>
</g>
</g>
<defs>
<clipPath id="clip0_169_18">
<rect width="151" height="89" fill="white"/>
</clipPath>
</defs>
</svg>
