<svg width="151" height="105" viewBox="0 0 151 105" fill="none" xmlns="http://www.w3.org/2000/svg">
<g clip-path="url(#clip0_176_751)">
<mask id="mask0_176_751" style="mask-type:alpha" maskUnits="userSpaceOnUse" x="0" y="0" width="151" height="105">
<path d="M151 0H0V105H151V0Z" fill="#C4C4C4"/>
</mask>
<g mask="url(#mask0_176_751)">
<path d="M45.0385 60.9963C36.8044 58.7874 25.3119 57.6273 16.4623 61.1256C11.8361 62.9544 7.91784 66.0633 5.59068 70.9633C3.26791 75.8542 2.55852 82.4698 4.22483 91.2655L4.3349 91.8465L4.8895 91.6415L70.3551 67.4361L70.3689 67.431L70.3822 67.4252L146.866 33.9462L147.429 33.6998L147.073 33.1987C140.282 23.6315 128.675 11.5105 115.927 6.34633C109.541 3.75927 102.836 2.90585 96.3044 5.03319C89.8387 7.13909 83.6161 12.1422 78.0682 21.1113C69.2471 19.9158 57.1016 20.4613 49.0973 26.0816C45.0222 28.943 42.0286 33.116 41.1077 38.9993C40.2205 44.6677 41.2633 51.8822 45.0385 60.9963Z" fill="white" stroke="#004B1A"/>
<path d="M78.323 21.6514C100.512 -14.6412 133.13 14.4206 146.666 33.4882L86.2001 138.217L4.71614 91.1725C-1.89898 56.2543 29.4164 57.0115 45.9009 61.7549C29.5723 23.6838 60.712 19.1563 78.323 21.6514Z" fill="white"/>
</g>
</g>
<defs>
<clipPath id="clip0_176_751">
<rect width="151" height="105" fill="white"/>
</clipPath>
</defs>
</svg>
