<svg width="100" height="28" viewBox="0 0 100 28" fill="none" xmlns="http://www.w3.org/2000/svg">
<path d="M20.925 9.15L16.875 23H13.1L10.575 13.325L8.05 23H4.25L0.175 9.15H3.725L6.175 19.7L8.825 9.15H12.525L15.125 19.675L17.575 9.15H20.925ZM35.6938 15.775C35.6938 16.275 35.6604 16.725 35.5938 17.125H25.4688C25.5521 18.125 25.9021 18.9083 26.5188 19.475C27.1354 20.0417 27.8938 20.325 28.7938 20.325C30.0938 20.325 31.0188 19.7667 31.5688 18.65H35.3438C34.9438 19.9833 34.1771 21.0833 33.0438 21.95C31.9104 22.8 30.5188 23.225 28.8688 23.225C27.5354 23.225 26.3354 22.9333 25.2688 22.35C24.2188 21.75 23.3938 20.9083 22.7938 19.825C22.2104 18.7417 21.9187 17.4917 21.9187 16.075C21.9187 14.6417 22.2104 13.3833 22.7938 12.3C23.3771 11.2167 24.1938 10.3833 25.2438 9.8C26.2938 9.21667 27.5021 8.925 28.8688 8.925C30.1854 8.925 31.3604 9.20833 32.3938 9.775C33.4438 10.3417 34.2521 11.15 34.8188 12.2C35.4021 13.2333 35.6938 14.425 35.6938 15.775ZM32.0688 14.775C32.0521 13.875 31.7271 13.1583 31.0938 12.625C30.4604 12.075 29.6854 11.8 28.7688 11.8C27.9021 11.8 27.1688 12.0667 26.5688 12.6C25.9854 13.1167 25.6271 13.8417 25.4938 14.775H32.0688ZM41.7484 4.5V23H38.2484V4.5H41.7484ZM48.7064 4.5V23H45.2064V4.5H48.7064ZM58.5145 12.025H56.0895V23H52.5395V12.025H50.9645V9.15H52.5395V8.45C52.5395 6.75 53.0228 5.5 53.9895 4.7C54.9561 3.9 56.4145 3.525 58.3645 3.575V6.525C57.5145 6.50833 56.9228 6.65 56.5895 6.95C56.2561 7.25 56.0895 7.79167 56.0895 8.575V9.15H58.5145V12.025ZM73.6576 15.775C73.6576 16.275 73.6243 16.725 73.5576 17.125H63.4326C63.516 18.125 63.866 18.9083 64.4826 19.475C65.0993 20.0417 65.8576 20.325 66.7576 20.325C68.0576 20.325 68.9826 19.7667 69.5326 18.65H73.3076C72.9076 19.9833 72.141 21.0833 71.0076 21.95C69.8743 22.8 68.4826 23.225 66.8326 23.225C65.4993 23.225 64.2993 22.9333 63.2326 22.35C62.1826 21.75 61.3576 20.9083 60.7576 19.825C60.1743 18.7417 59.8826 17.4917 59.8826 16.075C59.8826 14.6417 60.1743 13.3833 60.7576 12.3C61.341 11.2167 62.1576 10.3833 63.2076 9.8C64.2576 9.21667 65.466 8.925 66.8326 8.925C68.1493 8.925 69.3243 9.20833 70.3576 9.775C71.4076 10.3417 72.216 11.15 72.7826 12.2C73.366 13.2333 73.6576 14.425 73.6576 15.775ZM70.0326 14.775C70.016 13.875 69.691 13.1583 69.0576 12.625C68.4243 12.075 67.6493 11.8 66.7326 11.8C65.866 11.8 65.1326 12.0667 64.5326 12.6C63.9493 13.1167 63.591 13.8417 63.4576 14.775H70.0326ZM75.3123 16.025C75.3123 14.625 75.5873 13.3833 76.1373 12.3C76.704 11.2167 77.4706 10.3833 78.4373 9.8C79.404 9.21667 80.479 8.925 81.6623 8.925C82.5623 8.925 83.4206 9.125 84.2373 9.525C85.054 9.90833 85.704 10.425 86.1873 11.075V4.5H89.7373V23H86.1873V20.95C85.754 21.6333 85.1456 22.1833 84.3623 22.6C83.579 23.0167 82.6706 23.225 81.6373 23.225C80.4706 23.225 79.404 22.925 78.4373 22.325C77.4706 21.725 76.704 20.8833 76.1373 19.8C75.5873 18.7 75.3123 17.4417 75.3123 16.025ZM86.2123 16.075C86.2123 15.225 86.0456 14.5 85.7123 13.9C85.379 13.2833 84.929 12.8167 84.3623 12.5C83.7956 12.1667 83.1873 12 82.5373 12C81.8873 12 81.2873 12.1583 80.7373 12.475C80.1873 12.7917 79.7373 13.2583 79.3873 13.875C79.054 14.475 78.8873 15.1917 78.8873 16.025C78.8873 16.8583 79.054 17.5917 79.3873 18.225C79.7373 18.8417 80.1873 19.3167 80.7373 19.65C81.304 19.9833 81.904 20.15 82.5373 20.15C83.1873 20.15 83.7956 19.9917 84.3623 19.675C84.929 19.3417 85.379 18.875 85.7123 18.275C86.0456 17.6583 86.2123 16.925 86.2123 16.075Z" fill="#004B1A"/>
<circle cx="98" cy="21" r="2" fill="#C4FF88"/>
</svg>
